HIERARCHY
ROOT RootJoint
{
    OFFSET   0.000000   0.000000   0.000000
    CHANNELS 6 Xposition Yposition Zposition Xrotation Yrotation Zrotation
    JOINT pelvis_lowerback
    {
        OFFSET   0.000000   0.093605   0.000000
        CHANNELS 3 Xrotation Yrotation Zrotation
        JOINT lowerback_torso
        {
            OFFSET   0.000000   0.100000   0.000000
            CHANNELS 3 Xrotation Yrotation Zrotation
            JOINT torso_head
            {
                OFFSET   0.000000   0.282350   0.000000
                CHANNELS 3 Xrotation Yrotation Zrotation
                End Site
                {
                    OFFSET   0.000000   0.192650   0.000000
                }
            }
            JOINT rTorso_Clavicle
            {
                OFFSET  -0.001000   0.157500   0.000000
                CHANNELS 3 Xrotation Yrotation Zrotation
                JOINT rShoulder
                {
                    OFFSET  -0.117647   0.000000   0.000000
                    CHANNELS 3 Xrotation Yrotation Zrotation
                    JOINT rElbow
                    {
                        OFFSET  -0.245000   0.000000   0.000000
                        CHANNELS 3 Xrotation Yrotation Zrotation
                        JOINT rWrist
                        {
                            OFFSET  -0.240000   0.000000   0.000000
                            CHANNELS 3 Xrotation Yrotation Zrotation
                            End Site
                            {
                                OFFSET  -0.116353  -0.002500   0.000000
                            }
                        }
                    }
                }
            }
            JOINT lTorso_Clavicle
            {
                OFFSET   0.001000   0.157500   0.000000
                CHANNELS 3 Xrotation Yrotation Zrotation
                JOINT lShoulder
                {
                    OFFSET   0.117647   0.000000   0.000000
                    CHANNELS 3 Xrotation Yrotation Zrotation
                    JOINT lElbow
                    {
                        OFFSET   0.245000   0.000000   0.000000
                        CHANNELS 3 Xrotation Yrotation Zrotation
                        JOINT lWrist
                        {
                            OFFSET   0.240000   0.000000   0.000000
                            CHANNELS 3 Xrotation Yrotation Zrotation
                            End Site
                            {
                                OFFSET   0.116353  -0.002500   0.000000
                            }
                        }
                    }
                }
            }
        }
    }
    JOINT rHip
    {
        OFFSET  -0.100000  -0.051395   0.000000
        CHANNELS 3 Xrotation Yrotation Zrotation
        JOINT rKnee
        {
            OFFSET   0.000000  -0.410000   0.000000
            CHANNELS 3 Xrotation Yrotation Zrotation
            JOINT rAnkle
            {
                OFFSET   0.000000  -0.390000   0.000000
                CHANNELS 3 Xrotation Yrotation Zrotation
                JOINT rToeJoint
                {
                    OFFSET   0.000000  -0.050000   0.130000
                    CHANNELS 3 Xrotation Yrotation Zrotation
                    End Site
                    {
                        OFFSET  -0.010000   0.002000   0.060000
                    }
                }
            }
        }
    }
    JOINT lHip
    {
        OFFSET   0.100000  -0.051395   0.000000
        CHANNELS 3 Xrotation Yrotation Zrotation
        JOINT lKnee
        {
            OFFSET   0.000000  -0.410000   0.000000
            CHANNELS 3 Xrotation Yrotation Zrotation
            JOINT lAnkle
            {
                OFFSET   0.000000  -0.390000   0.000000
                CHANNELS 3 Xrotation Yrotation Zrotation
                JOINT lToeJoint
                {
                    OFFSET   0.000000  -0.050000   0.130000
                    CHANNELS 3 Xrotation Yrotation Zrotation
                    End Site
                    {
                        OFFSET   0.010000   0.002000   0.060000
                    }
                }
            }
        }
    }
}
MOTION
Frames: 5
Frame Time:   0.008333
 -2.534695   0.348729   4.407638  96.372798  -0.481058  18.832853 -11.453685   5.622445  -0.185450  -8.844931   5.153870   2.435425  18.380782  -3.954616  -3.659238  -1.633691  20.831999 -32.895765 -25.547534  38.927031  11.427410  -0.002755  22.492008  -0.005203  -0.202662  -1.937433 -48.866965   8.099146 -19.591442  36.513060  -1.530994 -19.035550 -31.401549   0.014131 -15.294881   0.000459 -10.683260  13.883690  -8.769548 -56.905636   4.795711  -2.727652  68.769663   0.000884   0.000521   0.404419   5.970218  10.468711   5.165885  -0.002381  -0.004264  -9.237875   0.191645  -4.928346  18.732887   0.002144  -0.006704   4.903627  -0.773857  -8.311647  -4.656211   0.001414  -0.001501
 -2.534567   0.348301   4.407756  96.519000  -0.754882  18.934977 -11.725669   5.818754   0.187287  -9.033178   5.373926   2.296638  18.461635  -4.125273  -3.520232  -1.494019  21.104740 -32.975165 -25.546498  39.153763  11.711712  -0.001789  22.051606  -0.005423   0.077918  -1.858069 -48.469320   7.825103 -19.466250  36.195994  -1.320717 -19.294335 -32.280257   0.013416 -15.660667  -0.000455 -10.982666  12.849561  -5.731053 -57.029811   4.808138  -2.665751  68.834875   0.000610   0.000289   0.233848   5.980506  10.449661   5.961678  -0.003030  -0.004518  -9.167799   0.222038  -5.185489  19.438361   0.002287  -0.007410   5.030175  -0.948914  -8.378601  -4.567438   0.001276  -0.001472
 -2.534314   0.348201   4.407802  96.597920  -0.961150  19.010912 -11.937674   6.025651   0.555785  -9.184051   5.596204   2.160679  18.536707  -4.282749  -3.388276  -1.350826  21.372506 -33.045946 -25.529565  39.291524  11.957516  -0.001022  21.546031  -0.005995   0.413066  -1.717502 -48.142746   7.546997 -19.378506  35.836051  -1.192490 -19.607887 -33.172852   0.013888 -16.157573  -0.001519 -10.946843  12.105191  -3.739872 -57.131647   4.835953  -2.627625  68.921186   0.000408   0.000107   0.081088   5.993822  10.432499   6.803060  -0.003127  -0.004388  -9.179332   0.257075  -5.415705  20.088758   0.002405  -0.007357   5.148744  -1.113043  -8.441194  -4.484956   0.001160  -0.001384
 -2.534032   0.348299   4.407842  96.622090  -1.140930  19.071388 -12.088177   6.231545   0.903841  -9.285797   5.812480   2.026469  18.598761  -4.426421  -3.264215  -1.219474  21.629726 -33.115490 -25.504705  39.374352  12.164564  -0.000480  21.016572  -0.006479   0.745915  -1.543860 -47.880528   7.303448 -19.316853  35.460051  -1.097057 -19.930196 -34.049146   0.014490 -16.642717  -0.002146 -10.886375  11.496948  -2.002785 -57.229897   4.852619  -2.607454  69.050188   0.000228  -0.000083  -0.039992   6.013196  10.418071   7.817152  -0.003232  -0.004324  -9.238615   0.296910  -5.620277  20.671459   0.002413  -0.006949   5.258399  -1.265891  -8.499572  -4.410689   0.001046  -0.001276
 -2.533739   0.348539   4.407878  96.615385  -1.279017  19.118188 -12.199036   6.417959   1.224199  -9.352381   6.010180   1.889983  18.654169  -4.559005  -3.147454  -1.106613  21.863454 -33.181915 -25.473795  39.422432  12.340040  -0.000143  20.491927  -0.006696   1.053411  -1.353175 -47.674490   7.089317 -19.268359  35.082839  -1.021516 -20.243187 -34.892643   0.014930 -17.100534  -0.002449 -10.836015  10.966895  -0.324861 -57.281407   4.898773  -2.584958  69.139480   0.000152  -0.000135  -0.162975   6.015530  10.399926   8.703623  -0.002763  -0.003872  -9.359001   0.339579  -5.800683  21.192422   0.002357  -0.006292   5.359655  -1.408415  -8.553926  -4.345257   0.000936  -0.001149
